<svg xmlns="http://www.w3.org/2000/svg" xmlns:xlink="http://www.w3.org/1999/xlink" width="123.503" height="109.519" viewBox="0 0 123.503 109.519">
  <defs>
    <filter id="Rectangle_19" x="0" y="0.889" width="47.647" height="38.524" filterUnits="userSpaceOnUse">
      <feOffset dy="3" input="SourceAlpha"/>
      <feGaussianBlur stdDeviation="3" result="blur"/>
      <feFlood flood-opacity="0.161"/>
      <feComposite operator="in" in2="blur"/>
      <feComposite in="SourceGraphic"/>
    </filter>
    <filter id="Path_55" x="37.696" y="58.475" width="51.645" height="51.044" filterUnits="userSpaceOnUse">
      <feOffset dy="3" input="SourceAlpha"/>
      <feGaussianBlur stdDeviation="3" result="blur-2"/>
      <feFlood flood-opacity="0.161"/>
      <feComposite operator="in" in2="blur-2"/>
      <feComposite in="SourceGraphic"/>
    </filter>
  </defs>
  <g id="Tortoise_logo" data-name="Tortoise logo" transform="translate(4.034)">
    <g id="Chimney" transform="matrix(0.719, -0.695, 0.695, 0.719, -41.294, 85.073)">
      <path id="Rectangle_18" data-name="Rectangle 18" d="M0,0H20a0,0,0,0,1,0,0V12a3,3,0,0,1-3,3H0a0,0,0,0,1,0,0V0A0,0,0,0,1,0,0Z" transform="translate(81.041 -7.968) rotate(20)" fill="#a3485b"/>
      <g transform="matrix(0.72, 0.69, -0.69, 0.72, 85.9, -35.31)" filter="url(#Rectangle_19)">
        <rect id="Rectangle_19-2" data-name="Rectangle 19" width="28" height="10" rx="2" transform="translate(9 18.28) rotate(-24)" fill="#a3485b"/>
      </g>
    </g>
    <g id="Layer-4" transform="translate(0 20.835)">
      <path id="Path_50" data-name="Path 50" d="M438.322,583.417l.078,3.742,3.837.078.078,12.238,25.042-.563-.061-11.752v-3.742Z" transform="translate(-437.847 -520.917)" fill="#a3485b" stroke="#a2485b" stroke-linecap="round" stroke-linejoin="round" stroke-miterlimit="10" stroke-width="1" fill-rule="evenodd"/>
      <path id="Path_51" data-name="Path 51" d="M585.13,582.775l-.078,3.742-3.837.078-.079,12.238-25.043-.563.062-11.752v-3.742Z" transform="translate(-466.34 -520.76)" fill="#a3485b" stroke="#a2485b" stroke-linecap="round" stroke-linejoin="round" stroke-miterlimit="10" stroke-width="1" fill-rule="evenodd"/>
      <path id="Path_52" data-name="Path 52" d="M481.959,574.24a217.627,217.627,0,0,0-43.826,6.933l29,6.3,17.554-.071A16.1,16.1,0,0,1,481.959,574.24Z" transform="translate(-437.802 -518.664)" fill="#a3485b" stroke="#a2485b" stroke-linecap="round" stroke-linejoin="round" stroke-miterlimit="10" stroke-width="1" fill-rule="evenodd"/>
      <path id="Path_53" data-name="Path 53" d="M533.907,574.459a6.936,6.936,0,0,1,.758,1.981,15.113,15.113,0,0,1-1.847,10.446c-.113.18-.282.3-.4.471l17.838-.071,29-6.555S560.607,575.939,533.907,574.459Z" transform="translate(-460.612 -518.718)" fill="#a3485b" stroke="#a2485b" stroke-linecap="round" stroke-linejoin="round" stroke-miterlimit="10" stroke-width="1" fill-rule="evenodd"/>
      <path id="Path_54" data-name="Path 54" d="M496.351,500.584s-58.422.7-58.655,59.325c0,0,57.737-14.372,118.969-.236C556.664,559.673,557.117,500.816,496.351,500.584Zm.095,2.452c54.207.207,53.8,52.7,53.8,52.7-54.622-12.61-106.129.212-106.129.212C444.324,503.647,496.446,503.036,496.446,503.036Z" transform="translate(-437.696 -500.584)" fill="#d8b6af" stroke="#d3b7b0" stroke-linecap="round" stroke-linejoin="round" stroke-miterlimit="10" stroke-width="1" fill-rule="evenodd"/>
      <g transform="matrix(1, 0, 0, 1, -4.03, -20.83)" filter="url(#Path_55)">
        <path id="Path_55-2" data-name="Path 55" d="M504.749,559.084c-.138.058-.242.174-.379.236a7.542,7.542,0,0,1-1.493,3.583,7.647,7.647,0,0,1-5.685,2.806,16.682,16.682,0,0,0-2.559,8.771,16.322,16.322,0,1,0,29.754-9.361,7.372,7.372,0,0,1-1.4-.165,7.6,7.6,0,0,1-4.9-5.328c-.163-.082-.284-.23-.45-.307a7.769,7.769,0,0,1-7.652,3.277A7.672,7.672,0,0,1,504.749,559.084Zm-5.093,17.732c9.3.03,13.993.043,22.624.071a11.317,11.317,0,0,1-22.624-.071Z" transform="translate(-447.44 -494.11)" fill="#a3485b" stroke="#a2485b" stroke-linecap="round" stroke-linejoin="round" stroke-miterlimit="10" stroke-width="1" fill-rule="evenodd"/>
      </g>
      <path id="Path_56" data-name="Path 56" d="M558.9,590.66l.065,7.374,20.729.323.064-9.831" transform="translate(-467.019 -522.171)" fill="#a3485b" stroke="#a2485b" stroke-linecap="round" stroke-linejoin="round" stroke-miterlimit="10" stroke-width="1" fill-rule="evenodd"/>
    </g>
  </g>
</svg>
